D:\school\WTK\thesis\model\3dpredictsim\Results\debug_batch\Pog_s1_tmt_bCst_d05_k2000_ig24_pas_GRF.mot
nRows=15
nColumns=19

name D:\school\WTK\thesis\model\3dpredictsim\Results\debug_batch\Pog_s1_tmt_bCst_d05_k2000_ig24_pas_GRF.mot
datacolumns 19
datarows 15
range 0.5505678479 0.7047268453
endheader
time 	ground_force_vx	ground_force_vy	ground_force_vz	ground_force_px	ground_force_py	ground_force_pz	1_ground_force_vx	1_ground_force_vy	1_ground_force_vz	1_ground_force_px	1_ground_force_py	1_ground_force_pz	ground_torque_x	ground_torque_y	ground_torque_z	1_ground_torque_x	1_ground_torque_y	1_ground_torque_z
        0.5505678479	      101.6183220344	      547.4366350378	        2.4891767951	        0.3824846697	        0.0000000000	        0.0374680240	      -73.3785078841	       58.2508344327	      -24.5920872025	        0.8646880973	        0.0000000000	       -0.0393445158	        0.0000000000	        0.0000000000	        0.0000000000	        0.0000000000	        0.0000000000	        0.0000000000	
        0.5615792048	       88.6616702930	      474.6989589962	        6.0367477498	        0.3852657698	        0.0000000000	        0.0368174725	     -116.3759540013	      128.5145782699	      -63.6569888826	        0.8725448282	        0.0000000000	       -0.0370433640	        0.0000000000	        0.0000000000	        0.0000000000	        0.0000000000	        0.0000000000	        0.0000000000	
        0.5725905618	       73.3174266022	      390.7394516307	        8.1616102475	        0.3893502279	        0.0000000000	        0.0355932933	      -44.4801173476	      253.0185419975	      -33.8892004401	        0.8781302170	        0.0000000000	       -0.0346533790	        0.0000000000	        0.0000000000	        0.0000000000	        0.0000000000	        0.0000000000	        0.0000000000	
        0.5836019187	       56.1078565336	      305.6284076641	        4.4049939267	        0.3954301651	        0.0000000000	        0.0333050996	      -33.7887028949	      389.8039066920	       -5.2192351582	        0.8810736315	        0.0000000000	       -0.0342289509	        0.0000000000	        0.0000000000	        0.0000000000	        0.0000000000	        0.0000000000	        0.0000000000	
        0.5946132757	       28.0216124716	      209.7038729278	        5.9253733155	        0.4064262945	        0.0000000000	        0.0286422887	      -58.5471104767	      541.3413156725	        3.1264148558	        0.8871764870	        0.0000000000	       -0.0359243345	        0.0000000000	        0.0000000000	        0.0000000000	        0.0000000000	        0.0000000000	        0.0000000000	
        0.6056246326	        9.9843979086	      140.3921362768	       11.7642784511	        0.4211112659	        0.0000000000	        0.0216138727	      -87.1676277492	      686.9995173235	        8.3243375179	        0.8944001765	        0.0000000000	       -0.0381669802	        0.0000000000	        0.0000000000	        0.0000000000	        0.0000000000	        0.0000000000	        0.0000000000	
        0.6166359896	        2.8603960231	      116.3991692423	       13.0389511805	        0.4207882592	        0.0000000000	        0.0219329423	     -102.1875179658	      772.8967352782	       10.6106122497	        0.8995037714	        0.0000000000	       -0.0396189050	        0.0000000000	        0.0000000000	        0.0000000000	        0.0000000000	        0.0000000000	        0.0000000000	
        0.6276473466	        0.5603884033	       83.6075778316	       13.2090761850	        0.4213762175	        0.0000000000	        0.0220211048	     -103.0979015205	      801.1575525920	       11.5725247074	        0.9031723340	        0.0000000000	       -0.0405246439	        0.0000000000	        0.0000000000	        0.0000000000	        0.0000000000	        0.0000000000	        0.0000000000	
        0.6386587035	       -4.6243796945	       46.2094661645	       10.2325123531	        0.4216493152	        0.0000000000	        0.0219926816	      -97.2862703845	      796.4620767118	       11.3254096317	        0.9061931593	        0.0000000000	       -0.0410965798	        0.0000000000	        0.0000000000	        0.0000000000	        0.0000000000	        0.0000000000	        0.0000000000	
        0.6496700605	       -5.7645951335	        8.3704729750	        1.9208044548	        0.0000000000	        0.0000000000	        0.0000000000	      -89.6389601416	      783.4742107464	       12.0815831632	        0.9092935082	        0.0000000000	       -0.0414048942	        0.0000000000	        0.0000000000	        0.0000000000	        0.0000000000	        0.0000000000	        0.0000000000	
        0.6606814174	        0.0011941739	       -0.0010668327	        0.0000210314	        0.0000000000	        0.0000000000	        0.0000000000	      -79.4719532731	      766.7377329461	       13.4350573219	        0.9125513557	        0.0000000000	       -0.0415497272	        0.0000000000	        0.0000000000	        0.0000000000	        0.0000000000	        0.0000000000	        0.0000000000	
        0.6716927744	        0.0000573452	       -0.0000434566	        0.0000032509	        0.0000000000	        0.0000000000	        0.0000000000	      -68.9125490375	      743.6336044493	       14.1993130518	        0.9163032299	        0.0000000000	       -0.0416268299	        0.0000000000	        0.0000000000	        0.0000000000	        0.0000000000	        0.0000000000	        0.0000000000	
        0.6827041313	        0.0000756772	       -0.0000502912	        0.0000054679	        0.0000000000	        0.0000000000	        0.0000000000	      -60.2485024743	      719.9875100776	       14.7355927400	        0.9207941769	        0.0000000000	       -0.0415861962	        0.0000000000	        0.0000000000	        0.0000000000	        0.0000000000	        0.0000000000	        0.0000000000	
        0.6937154883	        0.0016201914	       -0.0009743374	        0.0001292511	        0.0000000000	        0.0000000000	        0.0000000000	      -51.4563689639	      694.1346547258	       15.3896720786	        0.9254116638	        0.0000000000	       -0.0415349465	        0.0000000000	        0.0000000000	        0.0000000000	        0.0000000000	        0.0000000000	        0.0000000000	
        0.7047268453	       -0.0157416472	        0.0087174463	       -0.0013329366	        0.0000000000	        0.0000000000	        0.0000000000	      -42.9292097552	      667.6078869658	       16.0053700330	        0.9299441935	        0.0000000000	       -0.0415406395	        0.0000000000	        0.0000000000	        0.0000000000	        0.0000000000	        0.0000000000	        0.0000000000	
